<svg version="1.2" xmlns="http://www.w3.org/2000/svg" viewBox="0 0 24 24" width="24" height="24">
	<title>image (1)</title>
	<defs>
		<linearGradient id="g1" x2="1" gradientUnits="userSpaceOnUse" gradientTransform="matrix(30,0,0,30,-3,-3)">
			<stop offset="0" stop-color="#74d4ff"/>
			<stop offset="1" stop-color="#51a2ff"/>
		</linearGradient>
	</defs>
	<style>
		.s0 { fill: url(#g1) } 
		.s1 { fill: none;stroke: #ffffff;stroke-linecap: round;stroke-linejoin: round;stroke-width: 2 } 
	</style>
	<g id="Layer 1">
		<g id="Folder 1">
			<path id="Shape 1" fill-rule="evenodd" class="s0" d="m27-3v30h-30v-30z"/>
		</g>
		<path class="s1" d="m12 5c0-0.8-0.3-1.6-0.9-2.1-0.6-0.6-1.4-0.9-2.2-0.9-0.8 0-1.5 0.4-2.1 0.9-0.5 0.6-0.8 1.4-0.8 2.2q-0.9 0.3-1.6 0.9-0.7 0.6-1.1 1.4-0.3 0.8-0.3 1.8 0 0.9 0.5 1.7-0.8 0.6-1.2 1.5-0.4 0.9-0.3 1.9 0.1 1 0.6 1.9 0.6 0.8 1.4 1.3c-0.1 1.1 0.2 2.2 0.9 3 0.7 0.9 1.7 1.4 2.8 1.5 1.1 0.1 2.2-0.3 3-1.1 0.8-0.7 1.3-1.8 1.3-2.9z"/>
		<path class="s1" d="m12 5c0-0.8 0.3-1.6 0.9-2.1 0.6-0.6 1.4-0.9 2.2-0.9 0.8 0 1.5 0.4 2.1 0.9 0.5 0.6 0.8 1.4 0.8 2.2q0.9 0.3 1.6 0.9 0.7 0.6 1.1 1.4 0.3 0.8 0.3 1.8 0 0.9-0.5 1.7 0.8 0.6 1.2 1.5 0.4 0.9 0.3 1.9-0.1 1-0.6 1.9-0.6 0.8-1.4 1.3c0.1 1.1-0.2 2.2-0.9 3-0.7 0.9-1.7 1.4-2.8 1.5-1.1 0.1-2.2-0.3-3-1.1-0.8-0.7-1.3-1.8-1.3-2.9z"/>
		<path class="s1" d="m15 13q-0.6-0.2-1.2-0.6-0.5-0.4-0.9-0.9-0.4-0.6-0.6-1.2-0.3-0.6-0.3-1.3 0 0.7-0.3 1.3-0.2 0.6-0.6 1.2-0.4 0.5-0.9 0.9-0.6 0.4-1.2 0.6m8.6-6.5q0.1-0.2 0.2-0.3 0-0.2 0.1-0.4 0-0.1 0.1-0.3 0-0.2 0-0.4m-12 0q0 0.2 0 0.4 0.1 0.2 0.1 0.3 0.1 0.2 0.1 0.4 0.1 0.1 0.2 0.3m-2.9 4.4q0-0.1 0.1-0.1 0.1-0.1 0.2-0.1 0-0.1 0.1-0.1 0.1-0.1 0.2-0.1m15.8 0q0.1 0 0.2 0.1 0.1 0 0.1 0.1 0.1 0 0.2 0.1 0.1 0 0.1 0.1m-14.5 7.1q-0.3 0-0.5 0-0.3-0.1-0.5-0.1-0.3-0.1-0.5-0.2-0.2-0.1-0.5-0.2m16 0q-0.3 0.1-0.5 0.2-0.2 0.1-0.5 0.2-0.2 0-0.5 0.1-0.2 0-0.5 0"/>
	</g>
</svg>